<?xml version="1.0" standalone="no"?>
<!DOCTYPE svg PUBLIC "-//W3C//DTD SVG 20010904//EN"
 "http://www.w3.org/TR/2001/REC-SVG-20010904/DTD/svg10.dtd">
<svg version="1.0" xmlns="http://www.w3.org/2000/svg"
 width="300.000000pt" height="70.000000pt" viewBox="0 0 300.000000 70.000000"
 preserveAspectRatio="xMidYMid meet">

<g transform="translate(0.000000,70.000000) scale(0.100000,-0.100000)"
fill="#000000" stroke="none">
<path d="M252 621 c-70 -24 -118 -65 -156 -131 -27 -48 -31 -64 -31 -130 0
-90 28 -153 88 -206 64 -54 103 -69 187 -69 114 0 195 48 248 150 38 71 37
178 -1 251 -33 65 -97 120 -161 139 -65 20 -109 18 -174 -4z m188 -32 c200
-90 199 -373 -2 -459 -95 -41 -218 -14 -285 63 -116 133 -61 344 104 403 56
19 131 17 183 -7z"/>
<path d="M229 541 c-16 -16 -29 -36 -29 -45 0 -9 -6 -13 -14 -10 -23 9 -58
-46 -52 -81 4 -16 11 -31 16 -33 6 -2 3 -16 -5 -32 -22 -42 -19 -59 18 -94 17
-17 40 -43 49 -58 20 -31 75 -46 106 -29 14 7 28 7 51 -2 38 -14 78 3 97 42 7
13 22 28 35 35 13 6 30 24 37 39 11 23 11 32 -1 55 -12 24 -12 33 1 59 12 26
12 35 1 59 -8 16 -25 34 -39 41 -13 6 -27 21 -32 32 -12 32 -53 54 -88 46 -39
-9 -33 -31 7 -27 19 2 35 -4 47 -16 16 -19 16 -20 -10 -26 -17 -5 -30 -2 -38
8 -19 24 -87 66 -108 66 -11 0 -33 -13 -49 -29z m109 -34 c38 -32 39 -34 22
-55 l-17 -21 -28 29 c-15 16 -42 32 -58 36 l-31 6 23 19 c32 26 43 24 89 -14z
m-148 -109 c-19 -21 -19 -21 -26 6 -4 19 -1 33 12 47 18 21 18 21 26 -6 5 -20
2 -33 -12 -47z m70 68 c0 -2 -7 -9 -15 -16 -12 -10 -15 -10 -15 4 0 9 7 16 15
16 8 0 15 -2 15 -4z m190 -6 c0 -5 -4 -10 -9 -10 -6 0 -13 5 -16 10 -3 6 1 10
9 10 9 0 16 -4 16 -10z m65 -31 c10 -29 -8 -44 -33 -28 -16 10 -18 17 -11 31
6 10 7 23 3 29 -4 8 0 8 14 0 11 -6 24 -20 27 -32z m-158 -83 c-17 -17 -20
-17 -35 -3 -12 13 -13 19 -3 31 20 23 4 38 -22 21 -20 -13 -24 -13 -34 4 -10
15 -9 22 2 31 8 7 12 17 8 24 -3 6 18 -11 48 -39 54 -49 54 -50 36 -69z m53
50 c-20 -20 -20 -20 -34 -1 -13 18 -13 22 1 38 15 16 17 16 35 0 18 -16 18
-17 -2 -37z m61 -53 c-14 -19 -18 -20 -33 -6 -21 18 -45 8 -28 -12 8 -10 8
-19 1 -33 -6 -11 -7 -23 -3 -28 4 -5 -5 2 -21 15 l-27 25 46 47 c43 44 47 46
63 30 16 -15 16 -18 2 -38z m-221 31 c11 -12 11 -18 -2 -30 -13 -13 -20 -14
-38 -4 -21 11 -21 12 -4 31 21 23 28 24 44 3z m70 -73 c0 -3 -9 -12 -21 -19
-18 -11 -23 -11 -34 5 -11 15 -11 21 2 36 15 16 17 16 35 1 10 -10 18 -20 18
-23z m-116 -18 c-5 -17 -2 -23 10 -23 9 0 16 5 16 11 0 5 5 7 10 4 18 -11 11
-25 -13 -25 -30 0 -67 27 -67 49 0 26 10 31 31 18 13 -8 17 -18 13 -34z m300
-11 l-17 -27 -10 28 c-7 23 -6 31 9 42 29 21 41 -8 18 -43z m-140 -10 c15 -18
15 -20 -4 -37 -19 -17 -21 -17 -40 0 -19 17 -19 19 -4 37 10 10 20 18 24 18 4
0 14 -8 24 -18z m86 -7 c0 -9 -6 -12 -15 -9 -8 4 -12 10 -9 15 8 14 24 10 24
-6z m-153 -44 c21 -33 -22 -45 -53 -14 -15 16 -15 17 2 24 30 12 38 10 51 -10z
m132 10 c12 -8 12 -12 2 -25 -13 -16 -42 -21 -54 -10 -8 8 15 44 28 44 5 0 16
-4 24 -9z"/>
<path d="M295 510 c-11 -17 5 -32 21 -19 7 6 11 15 8 20 -7 12 -21 11 -29 -1z"/>
<path d="M1051 531 c-12 -8 -19 -56 -10 -65 5 -5 30 -9 52 -7 12 1 17 10 17
35 0 41 -26 57 -59 37z"/>
<path d="M1198 503 c-30 -5 -38 -27 -13 -37 12 -4 15 -28 15 -129 0 -136 4
-147 58 -147 46 0 72 16 72 45 0 30 -16 33 -23 5 -3 -11 -10 -20 -16 -20 -7 0
-11 47 -11 145 l0 145 -27 -1 c-16 -1 -40 -4 -55 -6z"/>
<path d="M1383 503 c-33 -4 -48 -33 -18 -33 13 0 15 -20 15 -124 0 -142 6
-156 70 -156 31 0 43 5 56 25 8 13 13 29 9 35 -10 16 -22 12 -28 -10 -3 -11
-10 -20 -16 -20 -7 0 -11 47 -11 145 0 163 8 148 -77 138z"/>
<path d="M2178 502 c-24 -3 -30 -13 -73 -142 -35 -103 -52 -140 -66 -143 -42
-11 -17 -27 41 -27 47 0 60 3 60 15 0 9 -9 15 -25 15 -29 0 -28 -2 -14 39 11
30 14 32 56 29 44 -3 46 -5 62 -48 16 -44 18 -45 65 -48 46 -3 47 -2 40 20
-21 69 -104 281 -111 287 -4 4 -20 5 -35 3z m-2 -137 c19 -46 19 -45 -21 -45
-23 0 -33 4 -30 13 28 80 30 81 51 32z"/>
<path d="M690 485 c0 -8 9 -15 20 -15 19 0 20 -7 20 -125 0 -118 -1 -125 -20
-125 -11 0 -20 -7 -20 -15 0 -12 16 -15 85 -15 69 0 85 3 85 15 0 8 -9 15 -20
15 -17 0 -20 7 -20 44 l0 43 51 6 c28 4 62 13 75 22 31 20 41 73 20 113 -21
40 -63 52 -183 52 -76 0 -93 -3 -93 -15z m185 -75 c0 -63 -1 -65 -27 -68 l-28
-3 0 71 0 71 28 -3 c26 -3 27 -5 27 -68z"/>
<path d="M1035 413 c-28 -7 -43 -23 -22 -23 15 0 17 -12 17 -86 0 -71 -3 -89
-17 -100 -16 -11 -7 -13 62 -13 68 0 77 2 63 13 -14 10 -18 32 -20 112 l-3 99
-30 2 c-16 0 -39 -1 -50 -4z"/>
<path d="M1603 410 c-41 -17 -56 -54 -51 -125 5 -81 19 -97 92 -103 60 -5 106
14 106 43 0 19 -19 19 -26 1 -3 -8 -20 -18 -37 -22 -35 -7 -57 13 -57 52 0 21
5 23 63 26 l62 3 -1 48 c0 30 -6 54 -16 64 -19 18 -103 27 -135 13z m67 -29
c5 -11 10 -31 10 -45 0 -21 -5 -26 -25 -26 -26 0 -32 19 -19 68 8 27 20 28 34
3z"/>
<path d="M1851 408 c-52 -9 -62 -16 -38 -29 23 -14 25 -156 2 -165 -35 -14
-10 -24 55 -24 40 0 70 4 70 10 0 6 -7 10 -15 10 -12 0 -15 15 -15 79 0 84 11
107 31 69 30 -57 59 -51 59 12 0 47 -2 50 -26 50 -14 0 -35 -5 -46 -11 -12 -6
-23 -7 -27 -2 -3 5 -25 6 -50 1z"/>
<path d="M2411 408 c-52 -9 -62 -16 -38 -29 15 -9 17 -26 17 -125 0 -93 -3
-116 -15 -120 -32 -13 -13 -24 40 -24 l55 0 0 40 c0 40 0 40 40 40 80 0 110
33 110 121 0 42 -5 55 -29 80 -32 31 -55 36 -96 17 -17 -8 -29 -8 -33 -2 -4 6
-24 7 -51 2z m125 -63 c3 -25 3 -65 0 -90 -7 -42 -9 -45 -37 -45 l-29 0 0 72
c0 52 4 76 17 90 27 30 41 22 49 -27z"/>
<path d="M2745 414 c-5 -1 -27 -5 -47 -9 -37 -6 -54 -25 -23 -25 13 0 15 -20
15 -120 0 -98 -3 -122 -15 -126 -32 -13 -13 -24 40 -24 l55 0 0 40 0 40 40 0
c46 0 95 21 104 45 10 27 7 112 -5 139 -16 35 -63 53 -102 38 -17 -6 -35 -8
-41 -3 -6 5 -15 7 -21 5z m89 -40 c8 -20 8 -112 0 -141 -5 -17 -14 -23 -35
-23 l-29 0 0 72 c0 52 4 76 17 90 20 22 39 23 47 2z"/>
</g>
</svg>
